<svg xmlns="http://www.w3.org/2000/svg" xmlns:xlink="http://www.w3.org/1999/xlink" width="500" zoomAndPan="magnify" viewBox="0 0 375 374.999991" height="500" preserveAspectRatio="xMidYMid meet" version="1.0"><defs><g/><clipPath id="4adad47437"><path d="M 73 82.171875 L 282.097656 82.171875 L 282.097656 238.113281 L 73 238.113281 Z M 73 82.171875 " clip-rule="nonzero"/></clipPath><clipPath id="90e428fdc7"><path d="M 72.847656 186 L 107 186 L 107 190 L 72.847656 190 Z M 72.847656 186 " clip-rule="nonzero"/></clipPath></defs><g fill="#545454" fill-opacity="1"><g transform="translate(-0.81831, 315.669203)"><g><path d="M 31.59375 1.09375 C 28.007812 1.09375 24.742188 0.394531 21.796875 -1 C 18.859375 -2.40625 16.410156 -4.3125 14.453125 -6.71875 L 13.609375 0 L 7.8125 0 L 7.8125 -62.171875 L 14.875 -62.171875 L 14.875 -37.390625 C 16.832031 -39.679688 19.253906 -41.472656 22.140625 -42.765625 C 25.023438 -44.054688 28.175781 -44.703125 31.59375 -44.703125 C 35.90625 -44.703125 39.726562 -43.707031 43.0625 -41.71875 C 46.394531 -39.726562 49.007812 -37.023438 50.90625 -33.609375 C 52.8125 -30.191406 53.765625 -26.269531 53.765625 -21.84375 C 53.765625 -17.414062 52.8125 -13.476562 50.90625 -10.03125 C 49.007812 -6.59375 46.394531 -3.878906 43.0625 -1.890625 C 39.726562 0.0976562 35.90625 1.09375 31.59375 1.09375 Z M 14.625 -21.84375 C 14.625 -18.707031 15.304688 -15.921875 16.671875 -13.484375 C 18.046875 -11.046875 19.9375 -9.140625 22.34375 -7.765625 C 24.75 -6.398438 27.523438 -5.71875 30.671875 -5.71875 C 33.859375 -5.71875 36.65625 -6.398438 39.0625 -7.765625 C 41.476562 -9.140625 43.359375 -11.046875 44.703125 -13.484375 C 46.046875 -15.921875 46.71875 -18.707031 46.71875 -21.84375 C 46.71875 -24.976562 46.046875 -27.765625 44.703125 -30.203125 C 43.359375 -32.640625 41.476562 -34.539062 39.0625 -35.90625 C 36.65625 -37.28125 33.859375 -37.96875 30.671875 -37.96875 C 27.523438 -37.96875 24.75 -37.28125 22.34375 -35.90625 C 19.9375 -34.539062 18.046875 -32.640625 16.671875 -30.203125 C 15.304688 -27.765625 14.625 -24.976562 14.625 -21.84375 Z M 14.625 -21.84375 "/></g></g></g><g fill="#545454" fill-opacity="1"><g transform="translate(53.121666, 315.669203)"><g><path d="M 27.46875 1.09375 C 22.9375 1.09375 18.929688 0.113281 15.453125 -1.84375 C 11.984375 -3.800781 9.269531 -6.515625 7.3125 -9.984375 C 5.351562 -13.460938 4.375 -17.414062 4.375 -21.84375 C 4.375 -26.320312 5.351562 -30.269531 7.3125 -33.6875 C 9.269531 -37.101562 11.984375 -39.789062 15.453125 -41.75 C 18.929688 -43.71875 22.9375 -44.703125 27.46875 -44.703125 C 32.007812 -44.703125 36.015625 -43.71875 39.484375 -41.75 C 42.960938 -39.789062 45.679688 -37.101562 47.640625 -33.6875 C 49.597656 -30.269531 50.578125 -26.320312 50.578125 -21.84375 C 50.578125 -17.414062 49.597656 -13.460938 47.640625 -9.984375 C 45.679688 -6.515625 42.960938 -3.800781 39.484375 -1.84375 C 36.015625 0.113281 32.007812 1.09375 27.46875 1.09375 Z M 11.421875 -21.84375 C 11.421875 -18.65625 12.109375 -15.84375 13.484375 -13.40625 C 14.859375 -10.96875 16.75 -9.078125 19.15625 -7.734375 C 21.5625 -6.390625 24.332031 -5.71875 27.46875 -5.71875 C 30.601562 -5.71875 33.375 -6.390625 35.78125 -7.734375 C 38.195312 -9.078125 40.085938 -10.96875 41.453125 -13.40625 C 42.828125 -15.84375 43.515625 -18.65625 43.515625 -21.84375 C 43.515625 -25.039062 42.828125 -27.84375 41.453125 -30.25 C 40.085938 -32.65625 38.195312 -34.539062 35.78125 -35.90625 C 33.375 -37.28125 30.601562 -37.96875 27.46875 -37.96875 C 24.332031 -37.96875 21.5625 -37.28125 19.15625 -35.90625 C 16.75 -34.539062 14.859375 -32.65625 13.484375 -30.25 C 12.109375 -27.84375 11.421875 -25.039062 11.421875 -21.84375 Z M 11.421875 -21.84375 "/></g></g></g><g fill="#545454" fill-opacity="1"><g transform="translate(103.868932, 315.669203)"><g><path d="M 27.46875 1.09375 C 22.9375 1.09375 18.929688 0.113281 15.453125 -1.84375 C 11.984375 -3.800781 9.269531 -6.515625 7.3125 -9.984375 C 5.351562 -13.460938 4.375 -17.414062 4.375 -21.84375 C 4.375 -26.320312 5.351562 -30.269531 7.3125 -33.6875 C 9.269531 -37.101562 11.984375 -39.789062 15.453125 -41.75 C 18.929688 -43.71875 22.9375 -44.703125 27.46875 -44.703125 C 32.007812 -44.703125 36.015625 -43.71875 39.484375 -41.75 C 42.960938 -39.789062 45.679688 -37.101562 47.640625 -33.6875 C 49.597656 -30.269531 50.578125 -26.320312 50.578125 -21.84375 C 50.578125 -17.414062 49.597656 -13.460938 47.640625 -9.984375 C 45.679688 -6.515625 42.960938 -3.800781 39.484375 -1.84375 C 36.015625 0.113281 32.007812 1.09375 27.46875 1.09375 Z M 11.421875 -21.84375 C 11.421875 -18.65625 12.109375 -15.84375 13.484375 -13.40625 C 14.859375 -10.96875 16.75 -9.078125 19.15625 -7.734375 C 21.5625 -6.390625 24.332031 -5.71875 27.46875 -5.71875 C 30.601562 -5.71875 33.375 -6.390625 35.78125 -7.734375 C 38.195312 -9.078125 40.085938 -10.96875 41.453125 -13.40625 C 42.828125 -15.84375 43.515625 -18.65625 43.515625 -21.84375 C 43.515625 -25.039062 42.828125 -27.84375 41.453125 -30.25 C 40.085938 -32.65625 38.195312 -34.539062 35.78125 -35.90625 C 33.375 -37.28125 30.601562 -37.96875 27.46875 -37.96875 C 24.332031 -37.96875 21.5625 -37.28125 19.15625 -35.90625 C 16.75 -34.539062 14.859375 -32.65625 13.484375 -30.25 C 12.109375 -27.84375 11.421875 -25.039062 11.421875 -21.84375 Z M 11.421875 -21.84375 "/></g></g></g><g fill="#545454" fill-opacity="1"><g transform="translate(154.616201, 315.669203)"><g><path d="M 7.8125 0 L 7.8125 -62.171875 L 14.875 -62.171875 L 14.875 -25.375 L 20.328125 -25.375 C 23.859375 -25.375 26.578125 -25.972656 28.484375 -27.171875 C 30.390625 -28.378906 31.957031 -30.75 33.1875 -34.28125 L 36.46875 -43.609375 L 44.03125 -43.609375 L 39.65625 -31.671875 C 37.863281 -26.859375 35.457031 -23.5 32.4375 -21.59375 L 46.046875 0 L 37.640625 0 L 25.625 -19.234375 C 24.78125 -19.066406 23.894531 -18.953125 22.96875 -18.890625 C 22.050781 -18.835938 21.085938 -18.8125 20.078125 -18.8125 L 14.875 -18.8125 L 14.875 0 Z M 7.8125 0 "/></g></g></g><g fill="#545454" fill-opacity="1"><g transform="translate(199.398142, 315.669203)"><g/></g></g><g fill="#545454" fill-opacity="1"><g transform="translate(216.033837, 315.669203)"><g><path d="M 7.8125 0 L 7.8125 -62.171875 L 14.875 -62.171875 L 14.875 -37.890625 C 16.78125 -40.242188 19.046875 -41.96875 21.671875 -43.0625 C 24.304688 -44.15625 27.023438 -44.703125 29.828125 -44.703125 C 35.597656 -44.703125 40.101562 -42.894531 43.34375 -39.28125 C 46.59375 -35.664062 48.21875 -30.75 48.21875 -24.53125 L 48.21875 0 L 41.171875 0 L 41.171875 -23.859375 C 41.171875 -28.222656 40.078125 -31.664062 37.890625 -34.1875 C 35.703125 -36.707031 32.707031 -37.96875 28.90625 -37.96875 C 24.8125 -37.96875 21.445312 -36.550781 18.8125 -33.71875 C 16.1875 -30.894531 14.875 -27.078125 14.875 -22.265625 L 14.875 0 Z M 7.8125 0 "/></g></g></g><g fill="#545454" fill-opacity="1"><g transform="translate(267.033163, 315.669203)"><g><path d="M 25.203125 1.09375 C 19.492188 1.09375 15.023438 -0.753906 11.796875 -4.453125 C 8.578125 -8.148438 6.96875 -13.109375 6.96875 -19.328125 L 6.96875 -43.609375 L 14.03125 -43.609375 L 14.03125 -20 C 14.03125 -15.625 15.109375 -12.148438 17.265625 -9.578125 C 19.421875 -7.003906 22.375 -5.71875 26.125 -5.71875 C 30.21875 -5.71875 33.535156 -7.171875 36.078125 -10.078125 C 38.628906 -12.992188 39.90625 -16.832031 39.90625 -21.59375 L 39.90625 -43.609375 L 46.96875 -43.609375 L 46.96875 0 L 41.171875 0 L 40.40625 -6.390625 C 38.507812 -3.804688 36.226562 -1.910156 33.5625 -0.703125 C 30.90625 0.492188 28.117188 1.09375 25.203125 1.09375 Z M 25.203125 1.09375 "/></g></g></g><g fill="#545454" fill-opacity="1"><g transform="translate(317.612413, 315.669203)"><g><path d="M 31.59375 1.09375 C 28.007812 1.09375 24.742188 0.394531 21.796875 -1 C 18.859375 -2.40625 16.410156 -4.3125 14.453125 -6.71875 L 13.609375 0 L 7.8125 0 L 7.8125 -62.171875 L 14.875 -62.171875 L 14.875 -37.390625 C 16.832031 -39.679688 19.253906 -41.472656 22.140625 -42.765625 C 25.023438 -44.054688 28.175781 -44.703125 31.59375 -44.703125 C 35.90625 -44.703125 39.726562 -43.707031 43.0625 -41.71875 C 46.394531 -39.726562 49.007812 -37.023438 50.90625 -33.609375 C 52.8125 -30.191406 53.765625 -26.269531 53.765625 -21.84375 C 53.765625 -17.414062 52.8125 -13.476562 50.90625 -10.03125 C 49.007812 -6.59375 46.394531 -3.878906 43.0625 -1.890625 C 39.726562 0.0976562 35.90625 1.09375 31.59375 1.09375 Z M 14.625 -21.84375 C 14.625 -18.707031 15.304688 -15.921875 16.671875 -13.484375 C 18.046875 -11.046875 19.9375 -9.140625 22.34375 -7.765625 C 24.75 -6.398438 27.523438 -5.71875 30.671875 -5.71875 C 33.859375 -5.71875 36.65625 -6.398438 39.0625 -7.765625 C 41.476562 -9.140625 43.359375 -11.046875 44.703125 -13.484375 C 46.046875 -15.921875 46.71875 -18.707031 46.71875 -21.84375 C 46.71875 -24.976562 46.046875 -27.765625 44.703125 -30.203125 C 43.359375 -32.640625 41.476562 -34.539062 39.0625 -35.90625 C 36.65625 -37.28125 33.859375 -37.96875 30.671875 -37.96875 C 27.523438 -37.96875 24.75 -37.28125 22.34375 -35.90625 C 19.9375 -34.539062 18.046875 -32.640625 16.671875 -30.203125 C 15.304688 -27.765625 14.625 -24.976562 14.625 -21.84375 Z M 14.625 -21.84375 "/></g></g></g><g fill="#545454" fill-opacity="1"><g transform="translate(95.719367, 351.870779)"><g><path d="M 11.4375 -1.625 L 11.4375 0 L 1.953125 0 L 1.953125 -13.0625 L 11.171875 -13.0625 L 11.171875 -11.4375 L 3.828125 -11.4375 L 3.828125 -7.421875 L 10.375 -7.421875 L 10.375 -5.84375 L 3.828125 -5.84375 L 3.828125 -1.625 Z M 11.4375 -1.625 "/></g></g></g><g fill="#545454" fill-opacity="1"><g transform="translate(116.490418, 351.870779)"><g><path d="M 1.953125 -13.0625 L 7.46875 -13.0625 C 8.84375 -13.0625 10.066406 -12.785156 11.140625 -12.234375 C 12.210938 -11.691406 13.039062 -10.925781 13.625 -9.9375 C 14.21875 -8.945312 14.515625 -7.8125 14.515625 -6.53125 C 14.515625 -5.25 14.21875 -4.113281 13.625 -3.125 C 13.039062 -2.132812 12.210938 -1.363281 11.140625 -0.8125 C 10.066406 -0.269531 8.84375 0 7.46875 0 L 1.953125 0 Z M 7.34375 -1.625 C 8.40625 -1.625 9.335938 -1.828125 10.140625 -2.234375 C 10.941406 -2.648438 11.5625 -3.226562 12 -3.96875 C 12.4375 -4.707031 12.65625 -5.5625 12.65625 -6.53125 C 12.65625 -7.5 12.4375 -8.351562 12 -9.09375 C 11.5625 -9.832031 10.941406 -10.40625 10.140625 -10.8125 C 9.335938 -11.226562 8.40625 -11.4375 7.34375 -11.4375 L 3.828125 -11.4375 L 3.828125 -1.625 Z M 7.34375 -1.625 "/></g></g></g><g fill="#545454" fill-opacity="1"><g transform="translate(140.171896, 351.870779)"><g><path d="M 7.375 0.15625 C 5.625 0.15625 4.265625 -0.335938 3.296875 -1.328125 C 2.328125 -2.328125 1.84375 -3.765625 1.84375 -5.640625 L 1.84375 -13.0625 L 3.71875 -13.0625 L 3.71875 -5.703125 C 3.71875 -2.910156 4.941406 -1.515625 7.390625 -1.515625 C 8.578125 -1.515625 9.488281 -1.859375 10.125 -2.546875 C 10.757812 -3.234375 11.078125 -4.285156 11.078125 -5.703125 L 11.078125 -13.0625 L 12.890625 -13.0625 L 12.890625 -5.640625 C 12.890625 -3.753906 12.40625 -2.316406 11.4375 -1.328125 C 10.46875 -0.335938 9.113281 0.15625 7.375 0.15625 Z M 7.375 0.15625 "/></g></g></g><g fill="#545454" fill-opacity="1"><g transform="translate(163.200397, 351.870779)"><g><path d="M 7.796875 0.15625 C 6.492188 0.15625 5.316406 -0.128906 4.265625 -0.703125 C 3.210938 -1.285156 2.382812 -2.082031 1.78125 -3.09375 C 1.1875 -4.113281 0.890625 -5.257812 0.890625 -6.53125 C 0.890625 -7.800781 1.1875 -8.941406 1.78125 -9.953125 C 2.382812 -10.960938 3.210938 -11.753906 4.265625 -12.328125 C 5.328125 -12.910156 6.507812 -13.203125 7.8125 -13.203125 C 8.832031 -13.203125 9.765625 -13.03125 10.609375 -12.6875 C 11.460938 -12.351562 12.1875 -11.847656 12.78125 -11.171875 L 11.5625 -10 C 10.582031 -11.03125 9.359375 -11.546875 7.890625 -11.546875 C 6.921875 -11.546875 6.039062 -11.328125 5.25 -10.890625 C 4.46875 -10.460938 3.859375 -9.863281 3.421875 -9.09375 C 2.984375 -8.332031 2.765625 -7.476562 2.765625 -6.53125 C 2.765625 -5.582031 2.984375 -4.722656 3.421875 -3.953125 C 3.859375 -3.191406 4.46875 -2.59375 5.25 -2.15625 C 6.039062 -1.726562 6.921875 -1.515625 7.890625 -1.515625 C 9.347656 -1.515625 10.570312 -2.035156 11.5625 -3.078125 L 12.78125 -1.90625 C 12.1875 -1.226562 11.460938 -0.710938 10.609375 -0.359375 C 9.753906 -0.015625 8.816406 0.15625 7.796875 0.15625 Z M 7.796875 0.15625 "/></g></g></g><g fill="#545454" fill-opacity="1"><g transform="translate(184.960258, 351.870779)"><g><path d="M 10.28125 -3.265625 L 3.34375 -3.265625 L 1.90625 0 L -0.015625 0 L 5.890625 -13.0625 L 7.75 -13.0625 L 13.671875 0 L 11.71875 0 Z M 9.625 -4.75 L 6.8125 -11.15625 L 4 -4.75 Z M 9.625 -4.75 "/></g></g></g><g fill="#545454" fill-opacity="1"><g transform="translate(206.888007, 351.870779)"><g><path d="M 4.546875 -11.4375 L 0.078125 -11.4375 L 0.078125 -13.0625 L 10.875 -13.0625 L 10.875 -11.4375 L 6.40625 -11.4375 L 6.40625 0 L 4.546875 0 Z M 4.546875 -11.4375 "/></g></g></g><g fill="#545454" fill-opacity="1"><g transform="translate(226.11058, 351.870779)"><g><path d="M 1.953125 -13.0625 L 3.828125 -13.0625 L 3.828125 0 L 1.953125 0 Z M 1.953125 -13.0625 "/></g></g></g><g fill="#545454" fill-opacity="1"><g transform="translate(240.165296, 351.870779)"><g><path d="M 7.859375 0.15625 C 6.535156 0.15625 5.34375 -0.128906 4.28125 -0.703125 C 3.226562 -1.285156 2.398438 -2.085938 1.796875 -3.109375 C 1.191406 -4.128906 0.890625 -5.269531 0.890625 -6.53125 C 0.890625 -7.78125 1.191406 -8.914062 1.796875 -9.9375 C 2.398438 -10.957031 3.226562 -11.753906 4.28125 -12.328125 C 5.34375 -12.910156 6.535156 -13.203125 7.859375 -13.203125 C 9.160156 -13.203125 10.335938 -12.910156 11.390625 -12.328125 C 12.453125 -11.753906 13.28125 -10.960938 13.875 -9.953125 C 14.476562 -8.941406 14.78125 -7.800781 14.78125 -6.53125 C 14.78125 -5.257812 14.476562 -4.113281 13.875 -3.09375 C 13.28125 -2.082031 12.453125 -1.285156 11.390625 -0.703125 C 10.335938 -0.128906 9.160156 0.15625 7.859375 0.15625 Z M 7.859375 -1.515625 C 8.816406 -1.515625 9.675781 -1.726562 10.4375 -2.15625 C 11.195312 -2.59375 11.796875 -3.191406 12.234375 -3.953125 C 12.679688 -4.722656 12.90625 -5.582031 12.90625 -6.53125 C 12.90625 -7.476562 12.679688 -8.332031 12.234375 -9.09375 C 11.796875 -9.863281 11.195312 -10.460938 10.4375 -10.890625 C 9.675781 -11.328125 8.816406 -11.546875 7.859375 -11.546875 C 6.898438 -11.546875 6.03125 -11.328125 5.25 -10.890625 C 4.46875 -10.460938 3.859375 -9.863281 3.421875 -9.09375 C 2.984375 -8.332031 2.765625 -7.476562 2.765625 -6.53125 C 2.765625 -5.582031 2.984375 -4.722656 3.421875 -3.953125 C 3.859375 -3.191406 4.46875 -2.59375 5.25 -2.15625 C 6.03125 -1.726562 6.898438 -1.515625 7.859375 -1.515625 Z M 7.859375 -1.515625 "/></g></g></g><g fill="#545454" fill-opacity="1"><g transform="translate(264.107956, 351.870779)"><g><path d="M 13.1875 -13.0625 L 13.1875 0 L 11.65625 0 L 3.828125 -9.734375 L 3.828125 0 L 1.953125 0 L 1.953125 -13.0625 L 3.484375 -13.0625 L 11.328125 -3.328125 L 11.328125 -13.0625 Z M 13.1875 -13.0625 "/></g></g></g><g clip-path="url(#4adad47437)"><path fill="#545454" d="M 195.488281 82.195312 L 195.488281 217.257812 C 195.488281 223.035156 193.128906 228.28125 189.328125 232.085938 C 185.527344 235.886719 180.277344 238.246094 174.503906 238.246094 C 168.730469 238.246094 163.480469 235.886719 159.679688 232.085938 C 155.878906 228.28125 153.515625 223.035156 153.515625 217.257812 L 153.515625 82.195312 L 158.679688 82.195312 C 158.679688 86.542969 160.460938 90.496094 163.332031 93.367188 C 166.199219 96.238281 170.15625 98.015625 174.503906 98.015625 C 178.851562 98.015625 182.804688 96.238281 185.675781 93.367188 C 188.542969 90.496094 190.324219 86.542969 190.324219 82.195312 Z M 238.886719 82.195312 L 238.886719 217.257812 C 238.886719 223.035156 236.527344 228.28125 232.726562 232.085938 C 228.921875 235.886719 223.675781 238.246094 217.902344 238.246094 C 212.128906 238.246094 206.878906 235.886719 203.078125 232.085938 C 199.273438 228.28125 196.914062 223.035156 196.914062 217.257812 L 196.914062 82.195312 L 202.078125 82.195312 C 202.078125 86.542969 203.859375 90.496094 206.730469 93.367188 C 209.597656 96.238281 213.550781 98.015625 217.902344 98.015625 C 222.25 98.015625 226.203125 96.238281 229.074219 93.367188 C 231.941406 90.496094 233.722656 86.542969 233.722656 82.195312 Z M 86.972656 201.4375 L 148.800781 201.4375 L 148.800781 196.273438 L 73.21875 196.273438 L 73.21875 201.4375 C 77.566406 201.4375 81.519531 203.21875 84.390625 206.085938 C 87.257812 208.957031 89.039062 212.914062 89.039062 217.261719 C 89.039062 221.609375 87.257812 225.566406 84.390625 228.433594 C 81.519531 231.300781 77.566406 233.082031 73.21875 233.082031 L 73.21875 238.246094 L 163.550781 238.246094 C 160.800781 237.183594 158.328125 235.550781 156.273438 233.496094 C 156.140625 233.359375 156.003906 233.222656 155.871094 233.082031 L 86.972656 233.082031 C 87.339844 232.761719 87.695312 232.429688 88.039062 232.085938 C 91.84375 228.28125 94.203125 223.035156 94.203125 217.261719 C 94.203125 211.488281 91.84375 206.238281 88.039062 202.4375 C 87.695312 202.089844 87.339844 201.757812 86.972656 201.4375 Z M 164.582031 106.6875 C 165.566406 106.6875 166.371094 107.488281 166.371094 108.472656 L 166.371094 230.8125 C 167.324219 231.390625 168.34375 231.871094 169.410156 232.234375 L 169.410156 111.972656 C 169.410156 110.992188 170.214844 110.1875 171.199219 110.1875 C 172.179688 110.1875 172.984375 110.992188 172.984375 111.972656 L 172.984375 233.011719 C 173.484375 233.058594 173.992188 233.085938 174.503906 233.085938 C 175.015625 233.085938 175.523438 233.058594 176.023438 233.011719 L 176.023438 111.972656 C 176.023438 110.992188 176.828125 110.1875 177.808594 110.1875 C 178.792969 110.1875 179.597656 110.992188 179.597656 111.972656 L 179.597656 232.234375 C 180.664062 231.867188 181.683594 231.386719 182.640625 230.8125 L 182.640625 108.472656 C 182.640625 107.488281 183.441406 106.683594 184.421875 106.683594 C 185.40625 106.683594 186.210938 107.488281 186.210938 108.472656 L 186.210938 227.871094 C 188.761719 225.058594 190.324219 221.332031 190.324219 217.257812 L 190.324219 95.949219 C 190.003906 96.316406 189.671875 96.675781 189.328125 97.019531 C 185.527344 100.824219 180.277344 103.179688 174.503906 103.179688 C 168.730469 103.179688 163.480469 100.824219 159.679688 97.019531 C 159.335938 96.675781 159 96.316406 158.679688 95.949219 L 158.679688 217.257812 C 158.679688 221.332031 160.242188 225.058594 162.796875 227.871094 L 162.796875 108.472656 C 162.796875 107.488281 163.601562 106.6875 164.582031 106.6875 Z M 207.980469 106.6875 C 208.964844 106.6875 209.765625 107.488281 209.765625 108.472656 L 209.765625 230.8125 C 210.71875 231.390625 211.738281 231.871094 212.808594 232.234375 L 212.808594 111.972656 C 212.808594 110.992188 213.613281 110.1875 214.59375 110.1875 C 215.578125 110.1875 216.378906 110.992188 216.378906 111.972656 L 216.378906 233.011719 C 216.882812 233.058594 217.386719 233.085938 217.902344 233.085938 C 218.414062 233.085938 218.921875 233.058594 219.421875 233.011719 L 219.421875 111.972656 C 219.421875 110.992188 220.226562 110.1875 221.207031 110.1875 C 222.191406 110.1875 222.992188 110.992188 222.992188 111.972656 L 222.992188 232.234375 C 224.0625 231.867188 225.082031 231.386719 226.035156 230.8125 L 226.035156 108.472656 C 226.035156 107.488281 226.839844 106.683594 227.820312 106.683594 C 228.804688 106.683594 229.609375 107.488281 229.609375 108.472656 L 229.609375 227.871094 C 232.160156 225.058594 233.722656 221.332031 233.722656 217.257812 L 233.722656 95.949219 C 233.402344 96.316406 233.070312 96.675781 232.726562 97.019531 C 228.925781 100.824219 223.675781 103.179688 217.902344 103.179688 C 212.128906 103.179688 206.878906 100.824219 203.078125 97.019531 C 202.730469 96.675781 202.398438 96.316406 202.078125 95.949219 L 202.078125 217.257812 C 202.078125 221.332031 203.640625 225.058594 206.195312 227.871094 L 206.195312 108.472656 C 206.195312 107.488281 207 106.6875 207.980469 106.6875 Z M 251.378906 106.6875 C 252.359375 106.6875 253.164062 107.488281 253.164062 108.472656 L 253.164062 230.8125 C 254.117188 231.390625 255.136719 231.871094 256.203125 232.234375 L 256.203125 111.972656 C 256.203125 110.992188 257.007812 110.1875 257.992188 110.1875 C 258.972656 110.1875 259.777344 110.992188 259.777344 111.972656 L 259.777344 233.011719 C 260.277344 233.058594 260.785156 233.085938 261.296875 233.085938 C 261.808594 233.085938 262.320312 233.058594 262.820312 233.011719 L 262.820312 111.972656 C 262.820312 110.992188 263.621094 110.1875 264.605469 110.1875 C 265.585938 110.1875 266.390625 110.992188 266.390625 111.972656 L 266.390625 232.234375 C 267.460938 231.867188 268.476562 231.386719 269.433594 230.8125 L 269.433594 108.472656 C 269.433594 107.488281 270.234375 106.683594 271.21875 106.683594 C 272.199219 106.683594 273.003906 107.488281 273.003906 108.472656 L 273.003906 227.871094 C 275.558594 225.058594 277.121094 221.332031 277.121094 217.257812 L 277.121094 95.949219 C 276.800781 96.316406 276.46875 96.675781 276.121094 97.019531 C 272.320312 100.824219 267.070312 103.179688 261.296875 103.179688 C 255.523438 103.179688 250.277344 100.824219 246.472656 97.019531 C 246.128906 96.675781 245.796875 96.316406 245.472656 95.949219 L 245.472656 217.257812 C 245.472656 221.332031 247.035156 225.058594 249.59375 227.871094 L 249.59375 108.472656 C 249.59375 107.488281 250.398438 106.6875 251.378906 106.6875 Z M 148.3125 205.554688 L 101.652344 205.554688 C 100.671875 205.554688 99.867188 206.359375 99.867188 207.339844 C 99.867188 208.324219 100.671875 209.128906 101.652344 209.128906 L 148.3125 209.128906 Z M 148.3125 212.167969 L 105.15625 212.167969 C 104.175781 212.167969 103.367188 212.972656 103.367188 213.953125 C 103.367188 214.933594 104.171875 215.738281 105.15625 215.738281 L 148.3125 215.738281 Z M 148.34375 218.78125 L 105.15625 218.78125 C 104.175781 218.78125 103.367188 219.585938 103.367188 220.566406 C 103.367188 221.550781 104.171875 222.351562 105.15625 222.351562 L 148.847656 222.351562 C 148.578125 221.195312 148.410156 220 148.34375 218.78125 Z M 149.800781 225.394531 L 101.652344 225.394531 C 100.671875 225.394531 99.867188 226.199219 99.867188 227.179688 C 99.867188 228.164062 100.671875 228.964844 101.652344 228.964844 L 151.644531 228.964844 C 150.921875 227.84375 150.304688 226.648438 149.800781 225.394531 Z M 282.285156 82.195312 L 282.285156 217.257812 C 282.285156 223.035156 279.925781 228.28125 276.121094 232.085938 C 272.320312 235.886719 267.070312 238.246094 261.296875 238.246094 C 255.523438 238.246094 250.277344 235.886719 246.476562 232.085938 C 242.671875 228.28125 240.3125 223.035156 240.3125 217.257812 L 240.3125 82.195312 L 245.476562 82.195312 C 245.476562 86.542969 247.257812 90.496094 250.125 93.367188 C 252.996094 96.238281 256.953125 98.015625 261.296875 98.015625 C 265.648438 98.015625 269.601562 96.238281 272.46875 93.367188 C 275.339844 90.496094 277.121094 86.542969 277.121094 82.195312 Z M 282.285156 82.195312 " fill-opacity="1" fill-rule="nonzero"/></g><path fill="#545454" d="M 135.035156 157.125 C 127.558594 160.457031 121.824219 165.144531 117.75 172.328125 C 115.101562 177.140625 113.847656 182.558594 113.320312 187.992188 C 113.058594 190.707031 111.714844 190.589844 111.46875 187.652344 C 110.914062 181.023438 112.375 176.21875 115.414062 170.398438 C 115.570312 170.101562 115.726562 169.808594 115.886719 169.515625 C 117.949219 165.796875 121.746094 161.632812 125.234375 159.207031 C 131.296875 155.015625 137.671875 151.773438 145.253906 152.578125 C 145.847656 152.636719 148.75 152.753906 148.453125 153.882812 C 148.25 154.652344 146.019531 154.636719 145.402344 154.710938 C 141.980469 155.113281 138.207031 155.75 135.035156 157.125 " fill-opacity="1" fill-rule="nonzero"/><path fill="#545454" d="M 146.566406 114.152344 C 147.371094 114.152344 148.023438 130.695312 148.023438 139.851562 C 148.023438 150.488281 145.105469 150.488281 145.105469 139.851562 C 145.105469 130.695312 145.757812 114.152344 146.566406 114.152344 " fill-opacity="1" fill-rule="evenodd"/><path fill="#545454" d="M 127.484375 116.664062 C 128.265625 116.453125 133.175781 132.265625 135.546875 141.109375 C 138.300781 151.386719 135.484375 152.140625 132.730469 141.867188 C 130.359375 133.019531 126.707031 116.871094 127.484375 116.664062 " fill-opacity="1" fill-rule="evenodd"/><path fill="#545454" d="M 109.707031 124.027344 C 110.402344 123.625 119.242188 137.625 123.820312 145.554688 C 129.136719 154.769531 126.613281 156.226562 121.292969 147.015625 C 116.714844 139.085938 109.007812 124.429688 109.707031 124.027344 " fill-opacity="1" fill-rule="evenodd"/><path fill="#545454" d="M 94.4375 135.742188 C 95.007812 135.171875 107.167969 146.410156 113.644531 152.886719 C 121.164062 160.40625 119.101562 162.46875 111.582031 154.949219 C 105.105469 148.472656 93.867188 136.3125 94.4375 135.742188 " fill-opacity="1" fill-rule="evenodd"/><path fill="#545454" d="M 82.722656 151.011719 C 83.125 150.3125 97.777344 158.019531 105.710938 162.597656 C 114.921875 167.917969 113.464844 170.445312 104.253906 165.125 C 96.320312 160.546875 82.320312 151.710938 82.722656 151.011719 " fill-opacity="1" fill-rule="evenodd"/><path fill="#545454" d="M 75.359375 168.789062 C 75.566406 168.011719 91.714844 171.664062 100.5625 174.03125 C 110.835938 176.785156 110.082031 179.605469 99.804688 176.851562 C 90.960938 174.480469 75.148438 169.570312 75.359375 168.789062 " fill-opacity="1" fill-rule="evenodd"/><g clip-path="url(#90e428fdc7)"><path fill="#545454" d="M 72.847656 187.871094 C 72.847656 187.066406 89.390625 186.410156 98.546875 186.410156 C 109.183594 186.410156 109.183594 189.328125 98.546875 189.328125 C 89.390625 189.328125 72.847656 188.675781 72.847656 187.871094 " fill-opacity="1" fill-rule="evenodd"/></g><path fill="#545454" d="M 138.308594 165.332031 C 132.542969 167.882812 128.734375 171.15625 125.621094 176.707031 C 123.550781 180.398438 121.785156 184.253906 121.382812 188.441406 C 121.179688 190.53125 120.144531 190.441406 119.953125 188.179688 C 119.523438 183.070312 120.652344 179.367188 122.996094 174.878906 C 123.113281 174.652344 123.234375 174.425781 123.359375 174.203125 C 124.949219 171.335938 127.875 168.125 130.5625 166.253906 C 135.234375 163.027344 140.148438 160.527344 145.992188 161.144531 C 146.449219 161.191406 148.683594 161.285156 148.457031 162.152344 C 148.300781 162.746094 146.582031 162.734375 146.105469 162.789062 C 143.46875 163.101562 140.746094 164.257812 138.308594 165.332031 " fill-opacity="1" fill-rule="nonzero"/><path fill="#545454" d="M 142.15625 174.019531 C 138.402344 175.675781 136.097656 177.683594 134.074219 181.292969 C 132.730469 183.691406 132.019531 186.371094 131.753906 189.09375 C 131.625 190.453125 130.050781 190.101562 129.925781 188.632812 C 129.648438 185.308594 130.382812 182.898438 131.90625 179.984375 C 131.984375 179.835938 132.0625 179.6875 132.140625 179.542969 C 133.175781 177.679688 135.078125 175.589844 136.824219 174.375 C 139.863281 172.277344 143.058594 170.652344 146.859375 171.050781 C 147.152344 171.085938 148.332031 171.136719 148.460938 171.710938 C 148.601562 172.335938 147.53125 172.792969 147.222656 172.828125 C 145.507812 173.027344 143.738281 173.320312 142.15625 174.019531 " fill-opacity="1" fill-rule="nonzero"/><path fill="#545454" d="M 144.695312 181.355469 C 142.609375 182.277344 141.710938 183.058594 140.585938 185.066406 C 139.839844 186.398438 139.613281 187.453125 139.46875 188.96875 C 139.429688 189.351562 138.859375 190.011719 138.394531 189.9375 C 137.9375 189.867188 137.582031 189.066406 137.550781 188.664062 C 137.394531 186.816406 137.804688 185.472656 138.652344 183.851562 C 138.695312 183.765625 138.738281 183.6875 138.78125 183.605469 C 139.359375 182.566406 140.417969 181.40625 141.390625 180.730469 C 143.082031 179.5625 144.859375 178.65625 146.972656 178.878906 C 147.136719 178.898438 148.476562 178.78125 148.472656 179.535156 C 148.472656 179.894531 147.46875 180.578125 147.300781 180.597656 C 146.34375 180.707031 145.574219 180.96875 144.695312 181.355469 " fill-opacity="1" fill-rule="nonzero"/></svg>